<svg width="140" height="140" viewBox="0 0 140 140" fill="none" xmlns="http://www.w3.org/2000/svg">
<path opacity="0.5" fill-rule="evenodd" clip-rule="evenodd" d="M65.5473 139.97C49.8715 139.439 25.257 139.97 10 122.995C0.0635248 111.939 -0.499996 91.9959 10.0616 78.2351C10.7991 64.0125 21.2689 53.6308 29.7208 42.2037C40.6377 27.4437 47.9119 8.09852 65.5473 3.21732C86.958 -2.70881 113.262 -1.32836 128.581 14.8408C143.771 30.8736 140.815 56.4954 136.62 78.2351C133.238 95.7595 126.933 111.326 113.5 122.995C101.298 133.593 81.6611 140.516 65.5473 139.97Z" fill="#9CDDB7"/>
<ellipse cx="70" cy="69.9968" rx="60" ry="59.9973" fill="#39BA70"/>
<path d="M65.8547 95.8295L39.3185 80.5096C37.7243 79.5892 37.178 77.5506 38.0984 75.9563L41.4317 70.1831C42.3521 68.5888 44.3908 68.0425 45.9851 68.9631L63.8611 79.2832L85.967 40.9966C86.8874 39.4024 88.9262 38.8562 90.5204 39.7765L96.2938 43.1098C97.8881 44.0302 98.4343 46.0687 97.5139 47.663L70.4082 94.6096C69.4876 96.2038 67.449 96.7501 65.8547 95.8295Z" fill="#F5F8FA"/>
<path opacity="0.5" fill-rule="evenodd" clip-rule="evenodd" d="M123.075 123.874C125.136 122.478 128.169 120.663 130.617 121.102C133.223 121.57 134.911 124.436 135.237 127.061C135.518 129.324 133.568 131.027 132.064 132.747C130.871 134.11 129.54 135.264 127.761 135.608C125.634 136.018 123.245 136.215 121.648 134.757C119.936 133.194 119.13 130.597 119.859 128.394C120.508 126.431 121.362 125.035 123.075 123.874Z" fill="#9CDDB7"/>
<path opacity="0.5" fill-rule="evenodd" clip-rule="evenodd" d="M0.0749014 16.6521C0.382098 11.2734 3.70176 6.98658 8.57733 4.84489C16.0105 1.57973 25.7244 -3.3461 30.5048 3.2852C35.2971 9.93287 27.4736 17.6157 22.4442 24.0807C18.3088 29.3965 13.2816 35.6885 6.93611 33.5812C0.614525 31.4819 -0.309685 23.3859 0.0749014 16.6521Z" fill="#9CDDB7"/>
</svg>
